<?xml version="1.0" encoding="utf-8"?>
<!-- Generator: Adobe Illustrator 25.0.0, SVG Export Plug-In . SVG Version: 6.00 Build 0)  -->
<svg version="1.1" id="Слой_1" xmlns="http://www.w3.org/2000/svg" xmlns:xlink="http://www.w3.org/1999/xlink" x="0px" y="0px"
	 viewBox="0 0 512 512" style="enable-background:new 0 0 512 512;" xml:space="preserve">
<style type="text/css">
	.st0{fill:#D3FFB6;}
	.st1{fill:#001E03;}
	.st2{fill:#006611;}
	.st3{fill:#F7D946;}
	.st4{fill:#02843D;}
</style>
<rect x="13.3" y="16.9" class="st0" width="485.4" height="485.4"/>
<path class="st1" d="M492.1,0H19.9C8.9,0,0,11.4,0,25.4v461.2c0,14,8.9,25.4,19.9,25.4h472.2c11,0,19.9-11.4,19.9-25.4V25.4
	C512,11.4,503.1,0,492.1,0z M19.9,16.9h472.2c3.7,0,6.6,3.8,6.6,8.5v78.7H13.3V25.4C13.3,20.7,16.2,16.9,19.9,16.9z M492.1,495.1
	H19.9c-3.7,0-6.6-3.8-6.6-8.5V121.1h485.4v365.5C498.7,491.3,495.7,495.1,492.1,495.1C492.1,495.1,492.1,495.1,492.1,495.1z"/>
<path class="st2" d="M357.7,71.4h14.1c3.7,0,6.6-3.8,6.6-8.5s-3-8.5-6.6-8.5h-14.1c-3.7,0-6.6,3.8-6.6,8.5S354,71.4,357.7,71.4z"/>
<path class="st2" d="M405.4,71.4h14.1c3.7,0,6.6-3.8,6.6-8.5s-3-8.5-6.6-8.5h-14.1c-3.7,0-6.6,3.8-6.6,8.5S401.8,71.4,405.4,71.4z"
	/>
<path class="st2" d="M453.2,71.4h14.1c3.7,0,6.6-3.8,6.6-8.5s-3-8.5-6.6-8.5h-14.1c-3.7,0-6.6,3.8-6.6,8.5S449.5,71.4,453.2,71.4z"
	/>
<path class="st2" d="M44.7,71.4h14.1c3.7,0,6.6-3.8,6.6-8.5s-3-8.5-6.6-8.5H44.7c-3.7,0-6.6,3.8-6.6,8.5S41,71.4,44.7,71.4z"/>
<g>
	<path class="st3" d="M58.8,201.2H44.7c-3.7,0-6.6-3.8-6.6-8.5s3-8.5,6.6-8.5h14.1c3.7,0,6.6,3.8,6.6,8.5S62.5,201.2,58.8,201.2z"/>
	<path class="st3" d="M58.8,261.1H44.7c-3.7,0-6.6-3.8-6.6-8.5c0-4.7,3-8.5,6.6-8.5h14.1c3.7,0,6.6,3.8,6.6,8.5
		C65.4,257.3,62.5,261.1,58.8,261.1z"/>
	<path class="st3" d="M58.8,320.9H44.7c-3.7,0-6.6-3.8-6.6-8.5s3-8.5,6.6-8.5h14.1c3.7,0,6.6,3.8,6.6,8.5S62.5,320.9,58.8,320.9z"/>
	<path class="st3" d="M58.8,380.8H44.7c-3.7,0-6.6-3.8-6.6-8.5s3-8.5,6.6-8.5h14.1c3.7,0,6.6,3.8,6.6,8.5S62.5,380.8,58.8,380.8z"/>
	<path class="st3" d="M58.8,440.6H44.7c-3.7,0-6.6-3.8-6.6-8.5s3-8.5,6.6-8.5h14.1c3.7,0,6.6,3.8,6.6,8.5S62.5,440.6,58.8,440.6z"/>
	<path class="st3" d="M467.3,201.2h-14.1c-3.7,0-6.6-3.8-6.6-8.5s3-8.5,6.6-8.5h14.1c3.7,0,6.6,3.8,6.6,8.5S471,201.2,467.3,201.2z"
		/>
	<path class="st3" d="M467.3,261.1h-14.1c-3.7,0-6.6-3.8-6.6-8.5c0-4.7,3-8.5,6.6-8.5h14.1c3.7,0,6.6,3.8,6.6,8.5
		C474,257.3,471,261.1,467.3,261.1z"/>
	<path class="st3" d="M467.3,320.9h-14.1c-3.7,0-6.6-3.8-6.6-8.5s3-8.5,6.6-8.5h14.1c3.7,0,6.6,3.8,6.6,8.5S471,320.9,467.3,320.9z"
		/>
	<path class="st3" d="M467.3,380.8h-14.1c-3.7,0-6.6-3.8-6.6-8.5s3-8.5,6.6-8.5h14.1c3.7,0,6.6,3.8,6.6,8.5S471,380.8,467.3,380.8z"
		/>
	<path class="st3" d="M467.3,440.6h-14.1c-3.7,0-6.6-3.8-6.6-8.5s3-8.5,6.6-8.5h14.1c3.7,0,6.6,3.8,6.6,8.5S471,440.6,467.3,440.6z"
		/>
</g>
<path class="st4" d="M125.4,390.7c-3.7,0-6.6-3.8-6.6-8.5c0-2.3,0.7-4.4,1.9-6l57.7-73.7l-57.7-73.7c-2.5-3.4-2.5-8.7,0.2-12
	c2.6-3.2,6.6-3.2,9.2,0l62.4,79.7c2.6,3.3,2.6,8.7,0,12c0,0,0,0,0,0l-62.4,79.7C128.9,389.8,127.2,390.7,125.4,390.7L125.4,390.7z"
	/>
<path class="st4" d="M357.7,390.7H220.6c-3.7,0-6.6-3.8-6.6-8.5s3-8.5,6.6-8.5h137.1c3.7,0,6.6,3.8,6.6,8.5S361.3,390.7,357.7,390.7
	z"/>
</svg>
