<?xml version="1.0" encoding="utf-8"?>
<!-- Generator: Adobe Illustrator 25.0.0, SVG Export Plug-In . SVG Version: 6.00 Build 0)  -->
<svg version="1.1" id="Layer_1" xmlns="http://www.w3.org/2000/svg" xmlns:xlink="http://www.w3.org/1999/xlink" x="0px" y="0px"
	 viewBox="0 0 512 512" style="enable-background:new 0 0 512 512;" xml:space="preserve">
<style type="text/css">
	.st0{fill:#FCE8CB;}
	.st1{fill:#3A312A;}
	.st2{fill:#F16C7A;}
	.st3{fill:#8AC6DD;}
	.st4{fill:#D7E057;}
	.st5{fill:#DECAAD;}
	.st6{fill:#6CA8BF;}
</style>
<g>
	<path class="st0" d="M3.4,205.8h168.8v100.4H3.4L3.4,205.8z"/>
	<path class="st1" d="M172.2,201.4H3.4c-1.9,0-3.4,2-3.4,4.4v30.6c0,2.4,1.5,4.4,3.4,4.4s3.4-2,3.4-4.4v-26.2h162v91.5H6.8v-26.2
		c0-2.4-1.5-4.4-3.4-4.4s-3.4,2-3.4,4.4v30.6c0,2.4,1.5,4.4,3.4,4.4h168.8c1.9,0,3.4-2,3.4-4.4V205.8
		C175.6,203.4,174.1,201.4,172.2,201.4z"/>
	<path class="st0" d="M3.4,105.4h168.8v100.4H3.4L3.4,105.4z"/>
	<path class="st1" d="M172.2,101H3.4c-1.9,0-3.4,2-3.4,4.4v100.4c0,2.4,1.5,4.4,3.4,4.4h168.8c1.9,0,3.4-2,3.4-4.4V105.4
		C175.6,103,174.1,101,172.2,101z M168.8,201.4H6.8v-91.5h162V201.4z"/>
	<path class="st0" d="M3.4,306.2h168.8v100.4H3.4L3.4,306.2z"/>
	<path class="st1" d="M172.2,301.8H3.4c-1.9,0-3.4,2-3.4,4.4v100.4c0,2.4,1.5,4.4,3.4,4.4h168.8c1.9,0,3.4-2,3.4-4.4V306.2
		C175.6,303.7,174.1,301.8,172.2,301.8z M168.8,402.1H6.8v-91.5h162V402.1z"/>
	<path class="st0" d="M172.2,306.2h167.6v100.4H172.2V306.2z"/>
	<path class="st1" d="M339.8,301.8H172.2c-1.9,0-3.4,2-3.4,4.4v100.4c0,2.4,1.5,4.4,3.4,4.4h167.6c1.9,0,3.4-2,3.4-4.4V306.2
		C343.2,303.7,341.7,301.8,339.8,301.8z M336.4,402.1H175.6v-91.5h160.8V402.1z"/>
	<path class="st0" d="M172.2,105.4h167.6v100.4H172.2V105.4z"/>
	<path class="st1" d="M339.8,101H172.2c-1.9,0-3.4,2-3.4,4.4v100.4c0,2.4,1.5,4.4,3.4,4.4h167.6c1.9,0,3.4-2,3.4-4.4V105.4
		C343.2,103,341.7,101,339.8,101z M336.4,201.4H175.6v-91.5h160.8V201.4z"/>
	<path class="st0" d="M172.2,205.8h167.6v100.4H172.2V205.8z"/>
	<path class="st1" d="M339.8,201.4H172.2c-1.9,0-3.4,2-3.4,4.4v100.4c0,2.4,1.5,4.4,3.4,4.4h167.6c1.9,0,3.4-2,3.4-4.4V205.8
		C343.2,203.4,341.7,201.4,339.8,201.4z M336.4,301.8H175.6v-91.5h160.8V301.8z"/>
	<path class="st0" d="M339.8,205.8h168.8v100.4H339.8V205.8z"/>
	<path class="st1" d="M508.6,201.4H339.8c-1.9,0-3.4,2-3.4,4.4v100.4c0,2.4,1.5,4.4,3.4,4.4h168.8c1.9,0,3.4-2,3.4-4.4V205.8
		C512,203.4,510.5,201.4,508.6,201.4z M505.2,301.8h-162v-91.5h162V301.8z"/>
	<path class="st0" d="M339.8,306.2h168.8v100.4H339.8V306.2z"/>
	<path class="st1" d="M508.6,301.8H339.8c-1.9,0-3.4,2-3.4,4.4v100.4c0,2.4,1.5,4.4,3.4,4.4h168.8c1.9,0,3.4-2,3.4-4.4V306.2
		C512,303.7,510.5,301.8,508.6,301.8z M505.2,402.1h-162v-91.5h162V402.1z"/>
	<path class="st0" d="M339.8,406.6v101h143.9c13.8,0,24.9-14.5,24.9-32.5v-68.5H339.8z"/>
	<path class="st1" d="M508.6,402.1H339.8c-1.9,0-3.4,2-3.4,4.4v101c0,2.4,1.5,4.4,3.4,4.4h143.9c15.6,0,28.3-16.6,28.3-36.9v-68.5
		C512,404.1,510.5,402.1,508.6,402.1L508.6,402.1z M505.2,475.1c0,15.5-9.7,28.1-21.5,28.1H343.2V411h162L505.2,475.1z"/>
	<path class="st0" d="M339.8,105.4h168.8v100.4H339.8V105.4z"/>
	<path class="st1" d="M508.6,101H339.8c-1.9,0-3.4,2-3.4,4.4v100.4c0,2.4,1.5,4.4,3.4,4.4h168.8c1.9,0,3.4-2,3.4-4.4V105.4
		C512,103,510.5,101,508.6,101z M505.2,201.4h-162v-91.5h162V201.4z"/>
	<path class="st0" d="M3.4,406.6v68.5c0,17.9,11.2,32.5,24.9,32.5h143.9v-101H3.4z"/>
	<path class="st1" d="M172.2,402.1H3.4c-1.9,0-3.4,2-3.4,4.4v68.5C0,495.4,12.7,512,28.3,512h143.9c1.9,0,3.4-2,3.4-4.4v-101
		C175.6,404.1,174.1,402.1,172.2,402.1z M168.8,503.1H28.3c-11.9,0-21.5-12.6-21.5-28.1V411h162V503.1z"/>
	<path class="st0" d="M172.2,406.6h167.6v101H172.2V406.6z"/>
	<path class="st1" d="M339.8,402.1H172.2c-1.9,0-3.4,2-3.4,4.4v101c0,2.4,1.5,4.4,3.4,4.4h167.6c1.9,0,3.4-2,3.4-4.4v-101
		C343.2,404.1,341.7,402.1,339.8,402.1z M336.4,503.1H175.6V411h160.8V503.1z"/>
	<path class="st2" d="M28.3,4.4c-1.2,0-2.4,0.2-3.6,0.4C13.9,6.8,5.3,18.1,3.7,32.2c-0.2,1.5-0.3,3.1-0.3,4.7v68.5h168.8V4.4H28.3z"
		/>
	<path class="st1" d="M172.2,0H28.3c-1.3,0-2.6,0.1-4.1,0.4C11.9,2.7,2.1,15.6,0.3,31.6c-0.2,2-0.3,3.7-0.3,5.3v68.5
		c0,2.4,1.5,4.4,3.4,4.4h168.8c1.9,0,3.4-2,3.4-4.4V4.4C175.6,2,174.1,0,172.2,0z M168.8,101H6.8V36.9c0-1.2,0.1-2.5,0.3-4
		c1.4-12.2,8.8-21.9,18.2-23.7c1.2-0.2,2.2-0.3,3.1-0.3h140.5V101z"/>
	<path class="st3" d="M508.3,32.2c-1.6-14.2-10.2-25.4-21.1-27.4c-1.2-0.2-2.4-0.4-3.6-0.4H339.8v101h168.8V36.9
		C508.6,35.3,508.5,33.8,508.3,32.2L508.3,32.2z"/>
	<path class="st1" d="M511.7,31.6c-1.8-16-11.6-28.9-23.9-31.2c-1.5-0.3-2.8-0.4-4.1-0.4H339.8c-1.9,0-3.4,2-3.4,4.4v101
		c0,2.4,1.5,4.4,3.4,4.4h168.8c1.9,0,3.4-2,3.4-4.4V36.9C512,35.3,511.9,33.6,511.7,31.6z M505.2,101h-162V8.9h140.5
		c0.9,0,1.9,0.1,3.1,0.3c9.4,1.8,16.8,11.5,18.2,23.7c0.2,1.5,0.2,2.8,0.2,4L505.2,101z"/>
	<path class="st4" d="M172.2,4.4h167.6v101H172.2V4.4z"/>
	<path class="st1" d="M339.8,0h-71.7c-1.9,0-3.4,2-3.4,4.4s1.5,4.4,3.4,4.4h68.3V101H175.6V8.9h63.7c1.9,0,3.4-2,3.4-4.4
		S241.2,0,239.3,0h-67.1c-1.9,0-3.4,2-3.4,4.4v101c0,2.4,1.5,4.4,3.4,4.4h167.6c1.9,0,3.4-2,3.4-4.4V4.4C343.2,2,341.7,0,339.8,0z"
		/>
	<g>
		<path class="st5" d="M471.2,210.2h34v91.5h-34V210.2z"/>
		<path class="st5" d="M471.2,411v64.1c0,15.5-9.7,28-21.5,28h34c11.9,0,21.5-12.6,21.5-28V411H471.2z"/>
		<path class="st5" d="M471.2,109.9h34v91.5h-34V109.9z"/>
		<path class="st5" d="M471.2,310.6h34v91.5h-34V310.6z"/>
	</g>
	<path class="st6" d="M498.9,17.1c-3.9-5.1-9.3-8.2-15.2-8.2h-34c5.9,0,11.3,3.1,15.2,8.2s6.3,12.1,6.3,19.8V101h34V36.9
		C505.2,29.2,502.8,22.1,498.9,17.1z"/>
</g>
<g>
	<path class="st4" d="M113.7,48.3c-1.9,23.1-26,26.8-26,26.8c20.7,1,25.8,28.1,25.8,28.1c0.4-19.4,26.6-28.4,26.6-28.4
		C120.5,73.6,113.7,48.3,113.7,48.3z"/>
	<path class="st1" d="M140.3,71.8c-17.2-1-23.7-24-23.7-24.3c-0.4-1.4-1.7-2.3-3.2-2.2c-1.4,0.1-2.6,1.3-2.7,2.7
		C109,68.4,88.1,71.9,87.2,72.1c-1.5,0.2-2.6,1.6-2.5,3.1c0.1,1.5,1.3,2.8,2.9,2.8c18.1,0.8,23,25.4,23,25.7
		c0.3,1.4,1.5,2.4,2.9,2.4c0.1,0,0.2,0,0.3,0c1.5-0.1,2.7-1.4,2.8-2.9c0.4-17,24.4-25.6,24.6-25.6c1.4-0.5,2.2-1.8,2-3.2
		S141.8,71.8,140.3,71.8z M113.2,92.4c-2.7-6.3-7.4-13.8-15.2-17.8c5.9-2.8,12.8-7.8,16.4-16.5c3.1,6.1,8.4,13.8,16.7,17.4
		C125.1,78.9,117.3,84.4,113.2,92.4z"/>
	<path class="st4" d="M70.3,82.2c-1.4,16.4-18.4,18.9-18.4,18.9c14.6,0.7,18.3,19.9,18.3,19.9C70.5,107.4,89,101,89,101
		C75.1,100.1,70.3,82.2,70.3,82.2z"/>
	<path class="st1" d="M89.2,98c-11.5-0.7-15.9-16.4-16-16.5c-0.4-1.4-1.7-2.3-3.2-2.2c-1.4,0.1-2.6,1.3-2.7,2.7
		C66.2,95.7,52,98.1,51.5,98.2c-1.5,0.2-2.6,1.6-2.5,3.1c0.1,1.5,1.3,2.8,2.9,2.8c12.1,0.6,15.4,17.3,15.5,17.5
		c0.3,1.4,1.5,2.4,2.9,2.4c0.1,0,0.2,0,0.2,0c1.5-0.1,2.7-1.4,2.8-2.9c0.3-11.4,16.7-17.3,16.8-17.3c1.4-0.5,2.2-1.8,2-3.2
		C91.8,99.1,90.6,98,89.2,98z M70,111.5c-1.8-3.8-4.7-7.9-8.9-10.6c3.7-2.1,7.4-5.3,9.7-9.8c2.1,3.7,5.3,7.9,9.9,10.4
		C77.1,103.8,72.8,107.1,70,111.5z"/>
	<path class="st4" d="M70.3,28.9c-1.4,16.4-18.4,18.9-18.4,18.9c14.6,0.7,18.3,19.9,18.3,19.9C70.5,54,89,47.6,89,47.6
		C75.1,46.8,70.3,28.9,70.3,28.9z"/>
	<path class="st1" d="M89.2,44.6c-11.5-0.7-15.9-16.4-16-16.5c-0.4-1.4-1.7-2.3-3.2-2.2c-1.4,0.1-2.6,1.3-2.7,2.7
		C66.2,42.4,52,44.8,51.4,44.9c-1.5,0.2-2.6,1.6-2.5,3.1c0.1,1.5,1.3,2.8,2.9,2.8c12.1,0.6,15.4,17.3,15.5,17.5
		c0.3,1.4,1.5,2.4,2.9,2.4c0.1,0,0.2,0,0.2,0c1.5-0.1,2.7-1.4,2.8-2.9C73.4,56.4,89.8,50.5,90,50.5c1.4-0.5,2.2-1.8,2-3.2
		S90.6,44.7,89.2,44.6z M70,58.2c-1.8-3.8-4.7-7.9-8.9-10.6c3.7-2.1,7.4-5.3,9.7-9.8c2.1,3.7,5.3,7.9,9.9,10.4
		C77.1,50.5,72.8,53.8,70,58.2z"/>
</g>
</svg>
